# xmcd
#
# Track frame offsets:
#	182
#	12907
#	24295
#	39907
#	52132
#	67945
#	81740
#	99157
#	112485
#	124582
#	136207
#	157057
#	172282
#	187882
#	204670
#	218257
#	231007
#	246807
#
# Disc length: 3489 seconds
#
# Revision: 1
# Processed by: cddbd v1.5.1PL0 Copyright (c) Steve Scherf et al.
# Submitted via: EasyCDDAExtractor 7.0.6.1
#
DISCID=f60d9f12
DTITLE=Maurice Hardy and Alice Vernon - Maurice Hardy and Alice Vernon Never Saw T
DTITLE=he Danger
DYEAR=1900
DGENRE=
TTITLE0=Never Saw The Danger
TTITLE1=Silly Daniel
TTITLE2=Martin's Corner Store
TTITLE3=Let's Hate Ourselfs In The Morning
TTITLE4=She Likes Her Music Loud
TTITLE5=We Want Guns N Roses
TTITLE6=Lost Count Of The Ladies
TTITLE7=The Door Is Always Open
TTITLE8=Daddy's Words Of Wisdon
TTITLE9=Correct Me if Im Wrong
TTITLE10=Reno The Black Stallion
TTITLE11=Me And Bobby McGee
TTITLE12=Lonely Songs
TTITLE13=She's Not Hurting Anymore
TTITLE14=How Can I Trust You
TTITLE15=It Wont Be Me
TTITLE16=I Fall To Pieces
TTITLE17=We Want Guns And Roses Line Dance Version
EXTD=
EXTT0=
EXTT1=
EXTT2=
EXTT3=
EXTT4=
EXTT5=
EXTT6=
EXTT7=
EXTT8=
EXTT9=
EXTT10=
EXTT11=
EXTT12=
EXTT13=
EXTT14=
EXTT15=
EXTT16=
EXTT17=
PLAYORDER=
